Coordinates
version=1
nRows=19
nColumns=36
inDegrees=yes

Units are S.I. units (second, meters, Newtons, ...)
If the header above contains a line with 'inDegrees', this indicates whether rotational values are in degrees (yes) or radians (no).

endheader
time	pelvis_tilt	pelvis_list	pelvis_rotation	pelvis_tx	pelvis_ty	pelvis_tz	hip_flexion_r	hip_adduction_r	hip_rotation_r	knee_angle_r	knee_angle_r_beta	ankle_angle_r	subtalar_angle_r	mtp_angle_r	hip_flexion_l	hip_adduction_l	hip_rotation_l	knee_angle_l	knee_angle_l_beta	ankle_angle_l	subtalar_angle_l	mtp_angle_l	lumbar_extension	lumbar_bending	lumbar_rotation	arm_flex_r	arm_add_r	arm_rot_r	elbow_flex_r	pro_sup_r	arm_flex_l	arm_add_l	arm_rot_l	elbow_flex_l	pro_sup_l
     44.78333330	      0.08715761	      3.25991704	      1.01881905	      0.83901326	      0.96245709	      0.82494485	      0.13063547	     -2.50356804	      5.75265856	     14.30792304	      0.24972037	     16.03669851	      2.97720927	     -7.49999987	     25.31341519	     -2.03305941	     -3.26360020	     36.33463021	      0.63415893	      4.29283251	     -9.67806219	     -7.49999987	    -23.65983819	     -0.97006064	      6.92513135	     14.01538887	    -15.49340250	      6.37347031	     37.13000709	     75.69455711	      5.86200230	     -9.87235919	      1.12987066	     18.80320733	     74.51940775
     44.80000000	     -0.27825424	      3.00812328	      1.52480909	      0.83250971	      0.95650130	      0.82495543	     -0.24414098	     -2.32671922	      5.55251672	     14.18708075	      0.24761127	     17.38290163	      3.08567661	     -7.49999987	     27.39219659	     -2.59872009	     -3.01018029	     32.81583607	      0.57274439	      4.12681155	     -8.97850591	     -7.49999987	    -23.49386186	     -0.80177387	      7.06552639	     15.01367255	    -16.17672989	      8.57196598	     38.97200446	     75.87722730	      5.35954556	     -9.81048267	      1.16664530	     18.96650371	     74.64140852
     44.81666670	     -0.62139034	      2.70985627	      1.93354961	      0.82768640	      0.95149073	      0.82446246	     -0.67075604	     -2.09703979	      5.23287500	     14.06151987	      0.24541982	     18.78337497	      3.35449392	     -7.49999987	     29.42996314	     -3.18666762	     -2.68632505	     29.33042240	      0.51191244	      4.16742164	     -8.27886937	     -7.49999987	    -23.35476854	     -0.53163303	      6.98161123	     16.46593848	    -16.78381675	     10.96277012	     40.41523177	     75.85119468	      4.87209452	     -9.76034153	      0.97432286	     19.09827770	     74.51967502
     44.83333330	     -0.99286364	      2.51080620	      2.12758268	      0.82602829	      0.94592048	      0.82163971	     -1.21308432	     -1.95161114	      5.02208829	     13.86887391	      0.24205751	     19.98761119	      3.84520190	     -7.49999987	     31.37024670	     -3.66546753	     -2.41545833	     26.09620868	      0.45546476	      4.54388886	     -7.58556214	     -7.49999987	    -23.13194598	     -0.40341919	      6.99080203	     17.88002941	    -17.45682613	     13.47910489	     41.53892508	     75.96074445	      4.25574823	     -9.73648647	      0.78872261	     19.72249973	     74.71738797
     44.85000000	     -1.49751922	      2.60419260	      2.14641392	      0.82618780	      0.94284982	      0.81623785	     -1.92090997	     -2.10821825	      5.10321055	     13.45921691	      0.23490765	     20.51757448	      4.50343330	     -7.49999987	     33.25590327	     -3.76862301	     -2.20906793	     23.25557868	      0.40588642	      5.40305415	     -6.69313053	     -7.49999987	    -22.62593466	     -0.56764130	      6.95867171	     19.12188130	    -17.80540261	     15.12001276	     41.76598118	     75.77899185	      3.70371843	     -9.56540075	      0.09926037	     19.70934417	     74.48617256
     44.86666670	     -1.91438186	      3.14052769	      2.05438418	      0.82742077	      0.94521997	      0.81048877	     -3.16433979	     -2.72328750	      5.67383121	     12.62454175	      0.22033982	     20.15891530	      5.20196986	     -7.49999987	     34.71369102	     -3.31536585	     -2.18642286	     20.74522080	      0.36207241	      6.62116565	     -5.41582583	     -7.49999987	    -22.18283617	     -1.23234775	      7.00434495	     19.96646960	    -17.98478450	     16.22757859	     41.34182800	     75.17119432	      3.31093708	     -9.41206175	     -0.60551724	     19.31647583	     73.88324274
     44.88333330	     -2.12178868	      4.00326063	      2.01321915	      0.83096168	      0.94772514	      0.80646874	     -5.01518777	     -3.64807616	      6.75058664	     11.42079719	      0.19933051	     19.19623015	      5.48186720	     -7.49999987	     35.61476003	     -2.35732641	     -2.13205943	     18.81223229	      0.32833539	      7.89487780	     -4.14017532	     -7.49999987	    -21.82653591	     -2.29850108	      7.02065100	     20.43544522	    -17.82746237	     16.84095797	     40.19034077	     74.96672968	      3.02550629	     -9.33346448	     -1.27979312	     18.54136416	     73.67316843
     44.90000000	     -2.00518929	      4.95407472	      2.17242808	      0.83410773	      0.94777762	      0.80435749	     -7.37069108	     -4.61210220	      7.88673574	     10.10465173	      0.17635944	     18.26672103	      5.39747844	     -7.49999987	     35.99769544	     -1.05331756	     -1.58751224	     17.85398437	      0.31161081	      8.98438618	     -3.37736298	     -7.49999987	    -21.83126680	     -3.60555434	      7.11858265	     20.42227362	    -17.58837151	     17.02942042	     38.98064001	     74.80609327	      2.98290055	     -9.40279356	     -1.68235085	     17.71030754	     73.56650412
     44.91666670	     -1.93088500	      5.73417496	      2.41356461	      0.83348583	      0.93885370	      0.80471879	     -9.35686171	     -5.33459588	      8.86544698	      9.26333065	      0.16167562	     17.87095528	      4.94075407	     -7.49999987	     36.66094990	      0.14913494	     -0.58680787	     18.29436719	      0.31929694	     10.02846886	     -2.90080127	     -7.49999987	    -21.83581528	     -4.93403868	      7.33246282	     20.35608575	    -17.29693410	     17.08685701	     38.09111999	     74.68522288	      2.97223562	     -9.70811086	     -1.98980168	     17.34630937	     73.39894084
     44.93333330	     -2.00388645	      5.95978057	      2.55507309	      0.82777963	      0.92126400	      0.80850800	    -10.36227751	     -5.44522899	      9.53432125	      9.52093877	      0.16617173	     18.58957019	      4.48514307	     -7.49999987	     38.16194566	      0.63977934	      0.55451989	     20.38900021	      0.35585518	     11.15972852	     -2.82667261	     -7.49999987	    -22.16572450	     -5.87443188	      7.42485943	     20.76870359	    -17.01352483	     17.19297089	     38.08203842	     74.56421389	      3.29936858	    -10.07058836	     -2.08996586	     17.10057273	     73.29302102
     44.95000000	     -2.42845078	      5.63659762	      2.57947673	      0.82281377	      0.90284328	      0.81328440	    -10.32990040	     -4.94536778	     10.46139667	     10.72306233	      0.18715274	     19.50331121	      3.05866306	     -7.49999987	     40.54286373	      0.36970244	      1.25045989	     24.03071737	      0.41941514	     12.51077937	     -2.21932558	     -7.49999987	    -22.08661483	     -6.38543417	      7.74751405	     21.78633419	    -16.78949142	     17.89581857	     37.72730855	     74.49372353	      4.11723439	    -10.42289677	     -2.17377805	     15.89172426	     73.33703569
     44.96666670	     -2.85762971	      5.19169275	      2.40713989	      0.82453538	      0.89160505	      0.81348872	    -10.09522050	     -4.42910746	     11.15871309	     12.39765661	      0.21637993	     20.77692718	      1.86941652	     -7.49999987	     42.78197362	     -0.09219518	      1.34688449	     28.61176309	      0.49936947	     13.43698984	     -1.69147401	     -7.49999987	    -21.94837691	     -6.83035520	      8.45306496	     22.43649759	    -16.73954210	     18.19605612	     37.90739354	     73.98244305	      4.38416181	    -10.84767865	     -2.25173750	     16.46763051	     72.89865439
     44.98333330	     -3.18264689	      4.94597402	      2.09773455	      0.83202007	      0.88919831	      0.80700840	    -10.19114891	     -4.41124591	     11.13733345	     14.01173134	      0.24455085	     22.05947353	      1.67938590	     -7.49999987	     44.23978359	     -0.19577629	      1.07327589	     33.28074710	      0.58085861	     13.43862920	     -1.60825442	     -7.49999987	    -21.52165038	     -7.36351203	      9.38225438	     22.59028979	    -16.75112506	     18.51530924	     37.43467052	     74.16473170	      4.60193788	    -11.03398637	     -2.22196023	     16.47123800	     73.19432004
     45.00000000	     -3.25389687	      5.25389153	      1.83401525	      0.84010143	      0.88941689	      0.79762892	    -11.02955513	     -5.21075838	     10.70293015	     15.02806484	      0.26228921	     22.04549801	      1.36869059	     -7.49999987	     44.58164390	      0.46157664	      0.51902135	     37.13221360	      0.64807939	     12.48107606	     -1.64896892	     -7.49999987	    -21.27514368	     -8.29181998	      9.75641664	     22.18075076	    -16.65831704	     18.62771686	     37.18723860	     74.15855482	      4.32874887	    -11.14863725	     -2.24881769	     16.63973020	     73.19063627
     45.01666670	     -4.09685330	      5.09619125	      1.43789558	      0.84429171	      0.88574362	      0.78998939	    -10.91045587	     -5.61668512	     10.76082931	     16.18460184	      0.28247459	     21.75087789	      0.78755183	     -7.49999987	     45.64775750	      0.76282261	      0.36964114	     40.72188878	      0.71073104	     12.15939097	     -1.90642594	     -7.49999987	    -19.45700137	     -8.58675575	     11.63191242	     21.45651870	    -16.86860497	     18.80371536	     34.55611841	     74.12187585	      4.80475365	    -10.80967295	     -2.24978651	     15.64262372	     73.39827796
     45.03333330	     -4.67873906	      5.32348422	      1.37024385	      0.84614606	      0.88224838	      0.78557739	    -11.18185112	     -6.28005714	     10.75297157	     17.24888015	      0.30104975	     20.33597664	     -0.41712805	     -7.49999987	     46.11448969	      1.69483541	      0.55031607	     43.36457535	      0.75685462	     11.97407129	     -2.63782620	     -7.49999987	    -18.42443649	     -9.22494196	     12.50223366	     20.45945165	    -16.94369029	     18.70198494	     33.35435708	     74.00809179	      4.92990358	    -10.78229960	     -2.17019103	     15.93533066	     73.44669189
     45.05000000	     -5.27728905	      5.69875363	      1.59154834	      0.84973494	      0.88102192	      0.78317711	    -11.39908763	     -6.99227142	     10.01360494	     18.52209742	      0.32327158	     18.34344489	     -0.80937508	     -7.49999987	     46.24041429	      2.95625873	      1.09211949	     45.18096978	      0.78855668	     12.17258003	     -3.90384870	     -7.49999987	    -17.37270329	     -9.98261072	     13.18757895	     18.97788700	    -16.82170562	     17.56834919	     32.79304202	     75.34090102	      5.56450155	    -11.14025833	     -0.35866395	     15.45812630	     75.88514864
     45.06666670	     -5.76704428	      6.07725344	      1.91185181	      0.85577510	      0.88200533	      0.78035435	    -11.54887279	     -7.42864679	      9.92226512	     20.20442746	      0.35263378	     14.89066208	     -2.80238214	     -7.49999987	     45.79092582	      4.24544468	      1.80209756	     46.37499090	      0.80939628	     12.78727121	     -5.24870005	     -7.49999987	    -16.37828457	    -10.70907262	     13.09243970	     17.77752609	    -16.05868893	     16.82776158	     31.60877751	     75.20099337	      5.77574421	    -11.54261169	     -0.24338954	     15.40513428	     75.79278387
     45.08333330	     -5.99784039	      6.67693716	      2.45272277	      0.86283659	      0.88532171	      0.77443825	    -11.64797335	     -7.99417954	      9.42571020	     22.43947692	      0.39164275	     10.75187065	     -4.81781664	     -7.49999987	     44.48983963	      5.84947187	      2.47677640	     46.86077113	      0.81787475	     13.53838911	     -6.47065254	     -7.49999987	    -15.54389038	    -11.61275203	     12.75149110	     16.21065983	    -15.24718907	     15.99939683	     30.59313142	     74.65254364	      5.85911999	    -12.04808333	      0.14681305	     15.76370371	     75.35468822
